<svg width="88" height="58" viewBox="0 0 88 58" fill="none" xmlns="http://www.w3.org/2000/svg">
<path d="M87.197 19.597C86.914 19.221 86.47 19 86 19H77.5V9.673C77.5 8.845 76.829 8.174 76.002 8.173L31.595 8.118L24.416 0.938999C24.135 0.657999 23.753 0.5 23.355 0.5H2C1.172 0.5 0.5 1.172 0.5 2V56C0.5 56.828 1.172 57.5 2 57.5H75.795C76.526 57.5 77.134 56.975 77.267 56.282C77.338 56.167 77.404 56.048 77.443 55.912L87.443 20.912C87.571 20.46 87.481 19.973 87.197 19.597ZM22.734 3.5L29.912 10.678C30.192 10.959 30.573 11.116 30.971 11.117L74.5 11.171V19H12C11.33 19 10.742 19.444 10.558 20.088L3.5 44.79V3.5H22.734ZM74.726 54.5H3.846L13.132 22H84.012L74.726 54.5Z" fill="#2D82B5"/>
</svg>
