<svg width="32" height="32" viewBox="0 0 32 32" fill="none" xmlns="http://www.w3.org/2000/svg">
<path d="M14 19L5 13H23L14 19Z" stroke="#015C92" stroke-width="2" stroke-miterlimit="10" stroke-linecap="round" stroke-linejoin="round"/>
<path d="M14 19V24" stroke="#015C92" stroke-width="2" stroke-miterlimit="10" stroke-linecap="round" stroke-linejoin="round"/>
<path d="M14 24V29" stroke="#015C92" stroke-width="2" stroke-miterlimit="10" stroke-linecap="round" stroke-linejoin="round"/>
<path d="M18.1 3.90001C18.9 4.70001 18.9 5.90001 18.1 6.70001C17.3 7.50001 13.9 8.10001 13.9 8.10001C13.9 8.10001 14.5 4.60001 15.3 3.90001C16.1 3.20001 17.3 3.10001 18.1 3.90001Z" stroke="#015C92" stroke-width="2" stroke-miterlimit="10" stroke-linecap="round" stroke-linejoin="round"/>
<path d="M11 29H15.5C16.9 29 18 27.9 18 26.5C18 25.1 16.9 24 15.5 24H11.5C10.1 24 9 22.9 9 21.5C9 20.1 10.1 19 11.5 19H19H20.5C24.6 19 28 15.6 28 11.5C28 7.4 24.6 4 20.5 4C19.8 4 19.1 4.1 18.4 4.3" stroke="#015C92" stroke-width="2" stroke-miterlimit="10" stroke-linecap="round" stroke-linejoin="round"/>
<path d="M14 8C12.9 9.1 11.1 9.1 10 8" stroke="#015C92" stroke-width="2" stroke-miterlimit="10" stroke-linecap="round" stroke-linejoin="round"/>
</svg>
